<svg id="Capa_1" enable-background="new 0 0 512 512" height="512" viewBox="0 0 512 512" width="512" xmlns="http://www.w3.org/2000/svg"><g><circle cx="150" cy="331" fill="#ff8fb8" r="150"/><path d="m300 331c0-82.842-67.158-150-150-150v300c82.842 0 150-67.158 150-150z" fill="#ff5f96"/><circle cx="362" cy="181" fill="#fabe2c" r="150"/><path d="m512 181c0-82.705-67.295-150-150-150v300c82.705 0 150-67.295 150-150z" fill="#ff9100"/><circle cx="195" cy="286" fill="#453d83" r="15"/><circle cx="105" cy="286" fill="#5f55af" r="15"/><circle cx="407" cy="136" fill="#453d83" r="15"/><circle cx="317" cy="136" fill="#5f55af" r="15"/><path d="m430.979 184.018c-6.636-4.995-16.04-3.662-21.006 2.959-11.484 15.264-29.729 22.896-47.974 22.896s-36.489-7.632-47.974-22.896c-4.937-6.592-14.326-7.939-21.006-2.959-6.621 4.98-7.939 14.385-2.959 21.006 16.95 22.529 43.844 35.976 71.94 35.976s54.99-13.447 71.938-35.977c4.981-6.621 3.663-16.025-2.959-21.005z" fill="#5f55af"/><path d="m433.938 205.023c4.98-6.621 3.662-16.025-2.959-21.006-6.636-4.995-16.04-3.662-21.006 2.959-11.484 15.264-29.729 22.896-47.974 22.896v31.128c28.097 0 54.991-13.447 71.939-35.977z" fill="#453d83"/><path d="m221.938 366.977c-16.948-22.53-43.842-35.977-71.938-35.977s-54.99 13.447-71.938 35.977c-4.98 6.621-3.662 16.025 2.959 21.006 6.65 5.01 16.025 3.647 21.006-2.959 11.484-15.264 29.729-22.896 47.974-22.896s36.489 7.632 47.974 22.896c4.944 6.566 14.328 7.976 21.006 2.959 6.62-4.981 7.938-14.385 2.957-21.006z" fill="#5f55af"/><path d="m197.974 385.023c4.944 6.566 14.328 7.976 21.006 2.959 6.621-4.98 7.939-14.385 2.959-21.006-16.949-22.529-43.843-35.976-71.939-35.976v31.128c18.245 0 36.489 7.632 47.974 22.895z" fill="#453d83"/></g></svg>