<svg id="Capa_1" enable-background="new 0 0 512 512" height="512" viewBox="0 0 512 512" width="512" xmlns="http://www.w3.org/2000/svg"><g><g><g><path d="m485.805 206.02h-.084c-11.351 0-21.332-7.336-24.911-18.108-3.271-9.843-7.231-19.372-11.824-28.528-5.099-10.165-3.254-22.431 4.787-30.473l.066-.066c10.23-10.23 10.23-26.815 0-37.045l-33.639-33.638c-10.23-10.23-26.815-10.23-37.045 0l-.066.066c-8.041 8.042-20.308 9.886-30.473 4.787-9.156-4.593-18.685-8.554-28.528-11.824-10.772-3.579-18.108-13.561-18.108-24.911v-.084c.001-14.468-11.727-26.196-26.194-26.196h-47.572c-14.467 0-26.195 11.728-26.195 26.195v.084c0 11.351-7.336 21.332-18.108 24.911-9.843 3.271-19.372 7.231-28.528 11.824-10.165 5.099-22.432 3.254-30.473-4.787l-.066-.066c-10.23-10.23-26.815-10.23-37.045 0l-33.637 33.639c-10.23 10.23-10.23 26.815 0 37.045l.066.066c8.042 8.042 9.886 20.308 4.787 30.473-4.593 9.156-8.554 18.685-11.824 28.528-3.579 10.772-13.561 18.108-24.911 18.108h-.084c-14.468 0-26.196 11.727-26.196 26.194v47.572c0 14.467 11.728 26.195 26.195 26.195h.084c11.351 0 21.332 7.336 24.911 18.108 3.271 9.843 7.231 19.372 11.824 28.528 5.099 10.165 3.254 22.432-4.787 30.473l-.066.066c-10.23 10.23-10.23 26.815 0 37.045l33.639 33.638c10.23 10.23 26.815 10.23 37.045 0l.066-.066c8.042-8.041 20.308-9.886 30.473-4.787 9.156 4.593 18.685 8.554 28.528 11.824 10.772 3.579 18.108 13.561 18.108 24.911v.084c0 14.467 11.728 26.195 26.195 26.195h47.572c14.467 0 26.195-11.728 26.195-26.195v-.084c0-11.351 7.336-21.332 18.108-24.911 9.843-3.271 19.372-7.231 28.528-11.824 10.165-5.099 22.432-3.254 30.473 4.787l.066.066c10.23 10.23 26.815 10.23 37.045 0l33.638-33.638c10.23-10.23 10.23-26.815 0-37.045l-.066-.066c-8.041-8.041-9.886-20.308-4.787-30.473 4.593-9.156 8.554-18.685 11.824-28.528 3.579-10.772 13.561-18.108 24.911-18.108h.084c14.467 0 26.195-11.728 26.195-26.195v-47.572c-.001-14.467-11.729-26.194-26.196-26.194zm-229.805 168.156c-65.267 0-118.176-52.909-118.176-118.176s52.909-118.176 118.176-118.176 118.176 52.909 118.176 118.176-52.909 118.176-118.176 118.176z" fill="#e8e8e8"/><path d="m370.003 65.285c-5.8 1.269-11.805.53-17.386-2.27-9.156-4.593-18.685-8.554-28.528-11.824-10.772-3.579-18.108-13.561-18.108-24.911v-.084c0-.901-.073-2.009-.162-2.887l-3.143-4.678c-24.645-10.283-48.757-15.812-76.595-17.9-11.507 2.762-20.062 13.111-20.062 25.465v.084c0 11.351-7.336 21.332-18.108 24.911-9.843 3.271-19.372 7.231-28.528 11.824-10.165 5.099-22.432 3.254-30.473-4.787l-.066-.066c-10.23-10.23-26.815-10.23-37.045 0l-33.637 33.638c-10.23 10.23-10.23 26.815 0 37.045l.066.066c8.042 8.042 9.886 20.308 4.787 30.473-4.593 9.156-8.554 18.685-11.824 28.528-3.579 10.772-13.561 18.108-24.911 18.108h-.084c-14.468 0-26.196 11.727-26.196 26.194v47.572c0 14.467 11.728 26.195 26.195 26.195h.084c11.351 0 21.332 7.336 24.911 18.108 3.271 9.843 7.231 19.371 11.824 28.528 5.099 10.165 3.254 22.432-4.787 30.473l-.066.066c-10.23 10.23-10.23 26.815 0 37.045l33.639 33.638c10.23 10.23 26.815 10.23 37.045 0l.066-.066c8.041-8.042 20.308-9.886 30.473-4.787 9.156 4.593 18.685 8.554 28.528 11.824 10.772 3.579 18.108 13.561 18.108 24.911v.084c0 11.568 7.235 21.288 17.637 24.757l4.096.577c27.838-2.089 50.452-7.555 75.097-17.838l2.974-4.609c.104-.948.157-1.911.157-2.887v-.084c0-11.351 7.336-21.332 18.108-24.911 9.843-3.271 19.372-7.231 28.528-11.824 5.58-2.799 11.589-3.537 17.386-2.27l7.143.041c53.473-46.92 85.511-114.026 85.511-190.756 0-75.415-32.619-143.203-84.508-190.053zm-114.003 308.891c-65.267 0-118.176-52.909-118.176-118.176s52.909-118.176 118.176-118.176 118.176 52.909 118.176 118.176-52.909 118.176-118.176 118.176z" fill="#eaf2ff"/><path d="m256 102.452c-84.802 0-153.548 68.746-153.548 153.548s68.746 153.548 153.548 153.548 153.548-68.746 153.548-153.548-68.746-153.548-153.548-153.548zm0 257.503c-57.413 0-103.955-46.542-103.955-103.955s46.542-103.955 103.955-103.955 103.955 46.542 103.955 103.955-46.542 103.955-103.955 103.955z" fill="#60a0f7"/></g><g fill="#c9e0fd"><path d="m305.819 23.308c-1.438-13.108-12.542-23.308-26.033-23.308h-47.572c-2.998 0-5.875.51-8.557 1.437 29.073 2.7 56.735 10.259 82.162 21.871z"/><path d="m485.805 206.02h-.084c-11.351 0-21.332-7.336-24.911-18.108-3.271-9.843-7.231-19.372-11.824-28.528-5.099-10.165-3.254-22.431 4.787-30.473l.066-.066c10.23-10.23 10.23-26.815 0-37.045l-33.639-33.638c-10.23-10.23-26.815-10.23-37.045 0l-.066.066c-3.679 3.679-8.245 6.044-13.087 7.058 52.404 46.823 85.404 114.91 85.404 190.715s-33 143.892-85.404 190.715c4.842 1.013 9.408 3.379 13.087 7.058l.066.066c10.23 10.23 26.815 10.23 37.045 0l33.638-33.638c10.23-10.23 10.23-26.815 0-37.045l-.066-.066c-8.041-8.041-9.886-20.308-4.787-30.473 4.593-9.156 8.554-18.685 11.824-28.528 3.579-10.772 13.561-18.108 24.911-18.108h.084c14.467 0 26.195-11.728 26.195-26.195v-47.572c.001-14.468-11.727-26.195-26.194-26.195z"/><path d="m223.657 510.563c2.682.927 5.559 1.437 8.557 1.437h47.572c13.491 0 24.595-10.2 26.033-23.308-25.427 11.612-53.089 19.171-82.162 21.871z"/></g></g></g></svg>